<svg xmlns="http://www.w3.org/2000/svg" viewBox="0 0 161.97 142.33"><defs><style>.cls-1{fill:#fff;}</style></defs><g id="Capa_2" data-name="Capa 2"><g id="Capa_1-2" data-name="Capa 1"><path class="cls-1" d="M104.62,27.66A57.34,57.34,0,1,0,162,85,57.34,57.34,0,0,0,104.62,27.66Zm30.44,58.85a8.47,8.47,0,0,1-5.61,2H85.79c.13.62.29,1.23.47,1.82A19.85,19.85,0,0,0,90.42,98a19.49,19.49,0,0,0,2.52,2.36,20.28,20.28,0,0,0,12.78,4.41,28.34,28.34,0,0,0,8.44-1,21.49,21.49,0,0,0,4.81-2.11l2-1.27.4-.24A10,10,0,0,1,125.88,99a6.47,6.47,0,0,1,4.74,2,6.83,6.83,0,0,1,.76.88,6.54,6.54,0,0,1,.57.94,6.68,6.68,0,0,1,.42.79,6.11,6.11,0,0,1,.55,2.59q0,3.61-3.74,6.55a24.58,24.58,0,0,1-4.37,2.83,40.21,40.21,0,0,1-5.64,2.37,39.8,39.8,0,0,1-9.49,2c-1.07.09-2.13.14-3.2.14a39.38,39.38,0,0,1-19.57-4.68A34.46,34.46,0,0,1,83,112.8a33.23,33.23,0,0,1-3.46-3c-.54-.54-1-1.09-1.55-1.67A32.84,32.84,0,0,1,74,102.47,37.52,37.52,0,0,1,69.49,84a41,41,0,0,1,4.8-20.17,38.71,38.71,0,0,1,4-5.94,34.44,34.44,0,0,1,3.17-3.32,33.39,33.39,0,0,1,3.56-2.82c.62-.42,1.26-.83,1.92-1.21a33.09,33.09,0,0,1,8.15-3.45,32.62,32.62,0,0,1,8.68-1.15,31.26,31.26,0,0,1,16.63,4.8,35.51,35.51,0,0,1,11.26,11c.43.65.83,1.31,1.22,2A34.76,34.76,0,0,1,137.6,81.3,6.86,6.86,0,0,1,135.06,86.51Z"/><path class="cls-1" d="M6.83,71.88l9.86-8.15L42.54,123.8,6.08,79.65a5.52,5.52,0,0,1,.75-7.77"/><path class="cls-1" d="M.63,91.1l4.64-6.62L31.09,116.7,1.48,96A3.5,3.5,0,0,1,.63,91.1"/><path class="cls-1" d="M42.92,85A61.71,61.71,0,0,1,72.37,32.43L23.53,52.18c-3,1.23-4.6,4.42-3.5,7.13L21.91,64l26.28,65c1.1,2.71,4.45,3.92,7.48,2.69l6-2.43A61.5,61.5,0,0,1,42.92,85Z"/><path class="cls-1" d="M115,64.58a17.08,17.08,0,0,0-11.07-4q-15.28,0-18,14.37h34.52v-.92a13.59,13.59,0,0,0-5.4-9.49"/><path class="cls-1" d="M147.91,2.64c-8.84-2.58-32.19-7.58-35.07,10.53a12.48,12.48,0,0,0,5.4,12.38c15.26,10.17,27.44-10.37,31.55-18.61a3.06,3.06,0,0,0-1.88-4.3"/></g></g></svg>